<svg xmlns="http://www.w3.org/2000/svg" width="112.871" height="72.777" viewBox="0 0 112.871 72.777">
  <g id="Grupo_40583" data-name="Grupo 40583" transform="translate(-1531.44 -430.851)">
    <g id="Grupo_40525" data-name="Grupo 40525">
      <path id="Caminho_81495" data-name="Caminho 81495" d="M1570.419,452.237h0a21.268,21.268,0,0,1-12.616-4.132,33.333,33.333,0,0,0-5.266,2.726,26.95,26.95,0,0,0,6.121,4.128A26.659,26.659,0,0,1,1570.419,452.237Z" fill="#00a0af"/>
      <path id="Caminho_81496" data-name="Caminho 81496" d="M1549.033,430.851h-5.443a26.686,26.686,0,0,0,5.234,15.9,39.064,39.064,0,0,1,4.762-2.73A21.276,21.276,0,0,1,1549.033,430.851Z" fill="#00a0af"/>
      <path id="Caminho_81497" data-name="Caminho 81497" d="M1570.419,464.291h0a33.239,33.239,0,0,1-12.616-2.479,21.6,21.6,0,0,0-4.217,4.086,38.643,38.643,0,0,0,6.653,2.475A14.719,14.719,0,0,1,1570.419,464.291Z" fill="#00a0af"/>
      <path id="Caminho_81498" data-name="Caminho 81498" d="M1552.537,459.087a33.73,33.73,0,0,1-5.257-4.128,33.728,33.728,0,0,0-3.614,4.068,39.142,39.142,0,0,0,5.159,4.141A27.074,27.074,0,0,1,1552.537,459.087Z" fill="#00a0af"/>
      <path id="Caminho_81499" data-name="Caminho 81499" d="M1539.945,454.959a39.184,39.184,0,0,1,3.721-4.069,33.261,33.261,0,0,1-6.687-20.039h-5.443A38.683,38.683,0,0,0,1539.945,454.959Z" fill="#00a0af"/>
      <path id="Caminho_81500" data-name="Caminho 81500" d="M1570.419,440.183a9.342,9.342,0,0,1-9.332-9.332h-5.443a14.728,14.728,0,0,0,4.595,10.693,38.817,38.817,0,0,1,10.18-1.361Z" fill="#00a0af"/>
      <g id="Grupo_40524" data-name="Grupo 40524">
        <path id="Caminho_81501" data-name="Caminho 81501" d="M1558.658,454.959a26.886,26.886,0,0,0-15.068,24.108h5.443a21.279,21.279,0,0,1,4.553-13.169,21.6,21.6,0,0,1,4.217-4.086,21.27,21.27,0,0,1,12.616-4.132v-5.443A26.659,26.659,0,0,0,1558.658,454.959Z" fill="#c0d128"/>
        <path id="Caminho_81502" data-name="Caminho 81502" d="M1560.239,468.373a14.73,14.73,0,0,0-4.595,10.694h5.443a9.343,9.343,0,0,1,9.332-9.333v-5.443A14.719,14.719,0,0,0,1560.239,468.373Z" fill="#c0d128"/>
        <path id="Caminho_81503" data-name="Caminho 81503" d="M1560.239,441.544a38.64,38.64,0,0,0-6.653,2.475,39.024,39.024,0,0,0-22.05,35.048h5.443a33.264,33.264,0,0,1,6.687-20.04,33.965,33.965,0,0,1,8.871-8.2,33.274,33.274,0,0,1,17.882-5.2v-5.443A38.817,38.817,0,0,0,1560.239,441.544Z" fill="#c0d128"/>
      </g>
    </g>
    <path id="Caminho_81504" data-name="Caminho 81504" d="M1592.524,433.262a19.153,19.153,0,0,1,14.43,6.06,22.172,22.172,0,0,1,0,29.886,19.153,19.153,0,0,1-14.43,6.06h-16.681V433.262Zm0,34.085a11.653,11.653,0,0,0,8.878-3.628,14.76,14.76,0,0,0,0-18.9,11.639,11.639,0,0,0-8.878-3.633h-8.4v26.164Z" fill="#c0d128"/>
    <path id="Caminho_81505" data-name="Caminho 81505" d="M1634.711,450.3a14.1,14.1,0,0,1,6.929,4.409,11.37,11.37,0,0,1,2.671,7.594q0,6.481-4.351,10.137a15.975,15.975,0,0,1-10.65,3.663,17.167,17.167,0,0,1-8.79-2.251,12.919,12.919,0,0,1-5.611-6.632l7.081-4.077q1.56,4.855,7.32,4.858a7.336,7.336,0,0,0,4.952-1.528,5.77,5.77,0,0,0,0-8.311,7.249,7.249,0,0,0-4.952-1.563h-1.8l-3.179-4.8,8.282-10.8h-16.442v-7.745h26.4V440.1Z" fill="#00a0af"/>
    <path id="Retângulo_22582" data-name="Retângulo 22582" d="M0,0H111.6a0,0,0,0,1,0,0V12.419a7.616,7.616,0,0,1-7.616,7.616H7.616A7.616,7.616,0,0,1,0,12.419V0A0,0,0,0,1,0,0Z" transform="translate(1531.44 483.592)" fill="#3986ff"/>
    <g id="Grupo_40526" data-name="Grupo 40526">
      <path id="Caminho_81506" data-name="Caminho 81506" d="M1555.5,489.5a.66.66,0,0,1-.194.486.722.722,0,0,1-.486.194h-3.759v2.262h3.343v.61a.669.669,0,0,1-.2.492.654.654,0,0,1-.478.2h-2.664v2.247h4.439v.624a.663.663,0,0,1-.68.68h-5.132v-8.4h5.812Z" fill="#fff"/>
      <path id="Caminho_81507" data-name="Caminho 81507" d="M1563.112,495.239a3.983,3.983,0,0,1-1.463,1.512,3.9,3.9,0,0,1-2.032.548h-2.732v-8.4h2.732a3.9,3.9,0,0,1,2.032.548,3.99,3.99,0,0,1,1.463,1.512,4.514,4.514,0,0,1,0,4.285Zm-1.185-3.627a2.715,2.715,0,0,0-.964-1.047,2.494,2.494,0,0,0-1.346-.382h-1.359v5.812h1.359a2.522,2.522,0,0,0,1.346-.374,2.667,2.667,0,0,0,.964-1.04,3.3,3.3,0,0,0,0-2.969Z" fill="#fff"/>
      <path id="Caminho_81508" data-name="Caminho 81508" d="M1565.582,488.894a.657.657,0,0,1,.485.194.663.663,0,0,1,.208.485v4.716a1.9,1.9,0,0,0,.229.922,1.774,1.774,0,0,0,.624.673,1.58,1.58,0,0,0,1.706,0,1.767,1.767,0,0,0,.624-.673,1.9,1.9,0,0,0,.23-.922v-4.716a.655.655,0,0,1,.194-.485.716.716,0,0,1,.485-.194h.694v5.395a3.159,3.159,0,0,1-1.54,2.726,3.013,3.013,0,0,1-3.079,0,3.154,3.154,0,0,1-1.54-2.726v-5.395Z" fill="#fff"/>
      <path id="Caminho_81509" data-name="Caminho 81509" d="M1578.293,496.9a3.8,3.8,0,0,1-3.974-.042,4.177,4.177,0,0,1-1.47-1.581,4.66,4.66,0,0,1,0-4.355,4.177,4.177,0,0,1,1.47-1.581,3.737,3.737,0,0,1,2.025-.583,3.675,3.675,0,0,1,1.769.444,4.211,4.211,0,0,1,1.394,1.206l-1.11.749a2.732,2.732,0,0,0-.908-.8,2.383,2.383,0,0,0-2.476.118,2.9,2.9,0,0,0-.97,1.1,3.4,3.4,0,0,0,0,3.051,2.9,2.9,0,0,0,.97,1.1,2.373,2.373,0,0,0,2.643.014,2.909,2.909,0,0,0,.963-1.048l1.124.75A4.245,4.245,0,0,1,1578.293,496.9Z" fill="#fff"/>
      <path id="Caminho_81510" data-name="Caminho 81510" d="M1586.623,497.175a.648.648,0,0,1-.25-.333l-.569-1.6h-3.453l-.555,1.6a.653.653,0,0,1-.25.333.7.7,0,0,1-.4.124h-.985l3.121-8.4h1.609l3.121,8.4h-.985A.7.7,0,0,1,1586.623,497.175Zm-3.8-3.233h2.523l-1.261-3.592Z" fill="#fff"/>
      <path id="Caminho_81511" data-name="Caminho 81511" d="M1593.878,489.5a.663.663,0,0,1-.679.68h-1.915V497.3h-1.373v-7.116H1588a.72.72,0,0,1-.486-.194.659.659,0,0,1-.194-.486v-.609h6.561Z" fill="#fff"/>
      <path id="Caminho_81512" data-name="Caminho 81512" d="M1594.987,497.3v-8.4h1.373v8.4Z" fill="#fff"/>
      <path id="Caminho_81513" data-name="Caminho 81513" d="M1605.133,495.337a4.068,4.068,0,0,1-1.464,1.546,3.984,3.984,0,0,1-4.057,0,3.991,3.991,0,0,1-1.463-1.546,4.91,4.91,0,0,1,0-4.481,3.991,3.991,0,0,1,1.463-1.546,4,4,0,0,1,4.065,0,4,4,0,0,1,1.463,1.546,4.611,4.611,0,0,1,.541,2.24A4.561,4.561,0,0,1,1605.133,495.337Zm-1.179-3.836a2.666,2.666,0,0,0-.964-1.075,2.561,2.561,0,0,0-2.691,0,2.643,2.643,0,0,0-.964,1.089,3.548,3.548,0,0,0-.353,1.609,3.366,3.366,0,0,0,.36,1.581,2.665,2.665,0,0,0,.964,1.068,2.571,2.571,0,0,0,2.684-.006,2.656,2.656,0,0,0,.964-1.076,3.77,3.77,0,0,0,0-3.19Z" fill="#fff"/>
      <path id="Caminho_81514" data-name="Caminho 81514" d="M1612.131,494.844v-5.95h1.36v8.4h-.847a.917.917,0,0,1-.45-.118.98.98,0,0,1-.354-.326l-3.537-5.506v5.95h-1.373v-8.4h.845a.925.925,0,0,1,.452.118,1.047,1.047,0,0,1,.353.311Z" fill="#fff"/>
      <path id="Caminho_81515" data-name="Caminho 81515" d="M1620.925,497.175a.641.641,0,0,1-.249-.333l-.569-1.6h-3.453l-.556,1.6a.643.643,0,0,1-.25.333.7.7,0,0,1-.4.124h-.984l3.12-8.4h1.61l3.12,8.4h-.984A.7.7,0,0,1,1620.925,497.175Zm-3.8-3.233h2.524l-1.262-3.592Z" fill="#fff"/>
      <path id="Caminho_81516" data-name="Caminho 81516" d="M1624.656,488.894v7.1h4.023v.624a.725.725,0,0,1-.194.486.657.657,0,0,1-.485.194h-4.717v-8.4Z" fill="#fff"/>
    </g>
  </g>
</svg>
