<svg xmlns="http://www.w3.org/2000/svg" width="112.872" height="72.777" viewBox="0 0 112.872 72.777">
  <g id="Grupo_40579" data-name="Grupo 40579" transform="translate(-1387.684 -430.851)">
    <g id="Grupo_40509" data-name="Grupo 40509">
      <path id="Caminho_81425" data-name="Caminho 81425" d="M1426.664,452.237h0a21.268,21.268,0,0,1-12.616-4.132,33.333,33.333,0,0,0-5.266,2.726,26.928,26.928,0,0,0,6.121,4.128A26.656,26.656,0,0,1,1426.664,452.237Z" fill="#00a0af"/>
      <path id="Caminho_81426" data-name="Caminho 81426" d="M1405.278,430.851h-5.443a26.679,26.679,0,0,0,5.234,15.9,38.991,38.991,0,0,1,4.762-2.73A21.276,21.276,0,0,1,1405.278,430.851Z" fill="#00a0af"/>
      <path id="Caminho_81427" data-name="Caminho 81427" d="M1426.664,464.291h0a33.236,33.236,0,0,1-12.616-2.479,21.6,21.6,0,0,0-4.217,4.086,38.643,38.643,0,0,0,6.653,2.475A14.719,14.719,0,0,1,1426.664,464.291Z" fill="#00a0af"/>
      <path id="Caminho_81428" data-name="Caminho 81428" d="M1408.782,459.087a33.736,33.736,0,0,1-5.257-4.128,33.728,33.728,0,0,0-3.614,4.068,39.007,39.007,0,0,0,5.159,4.141A27.023,27.023,0,0,1,1408.782,459.087Z" fill="#00a0af"/>
      <path id="Caminho_81429" data-name="Caminho 81429" d="M1396.19,454.959a39.184,39.184,0,0,1,3.721-4.069,33.261,33.261,0,0,1-6.687-20.039h-5.443A38.683,38.683,0,0,0,1396.19,454.959Z" fill="#00a0af"/>
      <path id="Caminho_81430" data-name="Caminho 81430" d="M1426.664,440.183a9.342,9.342,0,0,1-9.332-9.332h-5.443a14.728,14.728,0,0,0,4.595,10.693,38.817,38.817,0,0,1,10.18-1.361Z" fill="#00a0af"/>
      <g id="Grupo_40508" data-name="Grupo 40508">
        <path id="Caminho_81431" data-name="Caminho 81431" d="M1414.9,454.959a27.013,27.013,0,0,0-9.833,8.209,26.679,26.679,0,0,0-5.235,15.9h5.443a21.279,21.279,0,0,1,4.553-13.169,21.6,21.6,0,0,1,4.217-4.086,21.268,21.268,0,0,1,12.616-4.132v-5.443A26.656,26.656,0,0,0,1414.9,454.959Z" fill="#c0d128"/>
        <path id="Caminho_81432" data-name="Caminho 81432" d="M1416.484,468.373a14.73,14.73,0,0,0-4.595,10.694h5.443a9.343,9.343,0,0,1,9.332-9.333v-5.443A14.719,14.719,0,0,0,1416.484,468.373Z" fill="#c0d128"/>
        <path id="Caminho_81433" data-name="Caminho 81433" d="M1416.484,441.544a38.332,38.332,0,0,0-11.415,5.2,39.531,39.531,0,0,0-8.879,8.21,38.68,38.68,0,0,0-8.409,24.108h5.443a33.264,33.264,0,0,1,6.687-20.04,33.965,33.965,0,0,1,8.871-8.2,33.274,33.274,0,0,1,17.882-5.2v-5.443A38.817,38.817,0,0,0,1416.484,441.544Z" fill="#c0d128"/>
      </g>
    </g>
    <path id="Caminho_81434" data-name="Caminho 81434" d="M1448.769,433.262a19.153,19.153,0,0,1,14.43,6.06,22.172,22.172,0,0,1,0,29.886,19.153,19.153,0,0,1-14.43,6.06h-16.681V433.262Zm0,34.085a11.653,11.653,0,0,0,8.878-3.628,14.76,14.76,0,0,0,0-18.9,11.639,11.639,0,0,0-8.878-3.633h-8.4v26.164Z" fill="#c0d128"/>
    <path id="Caminho_81435" data-name="Caminho 81435" d="M1490.956,450.3a14.1,14.1,0,0,1,6.929,4.409,11.37,11.37,0,0,1,2.671,7.594q0,6.481-4.351,10.137a15.975,15.975,0,0,1-10.65,3.663,17.164,17.164,0,0,1-8.79-2.251,12.915,12.915,0,0,1-5.611-6.632l7.081-4.077q1.56,4.855,7.32,4.858a7.336,7.336,0,0,0,4.952-1.528,5.77,5.77,0,0,0,0-8.311,7.249,7.249,0,0,0-4.952-1.563h-1.8l-3.179-4.8,8.282-10.8h-16.442v-7.745h26.4V440.1Z" fill="#00a0af"/>
    <path id="Retângulo_22578" data-name="Retângulo 22578" d="M0,0H111.6a0,0,0,0,1,0,0V12.419a7.616,7.616,0,0,1-7.616,7.616H7.616A7.616,7.616,0,0,1,0,12.419V0A0,0,0,0,1,0,0Z" transform="translate(1387.684 483.592)" fill="#8338ec"/>
    <g id="Grupo_40510" data-name="Grupo 40510">
      <path id="Caminho_81436" data-name="Caminho 81436" d="M1434.855,489.5a.663.663,0,0,1-.679.68h-1.914V497.3h-1.373v-7.116h-1.914a.718.718,0,0,1-.486-.194.656.656,0,0,1-.194-.486v-.609h6.56Z" fill="#fff"/>
      <path id="Caminho_81437" data-name="Caminho 81437" d="M1442.38,495.337a4.066,4.066,0,0,1-1.463,1.546,3.985,3.985,0,0,1-4.057,0,3.994,3.994,0,0,1-1.464-1.546,4.918,4.918,0,0,1,0-4.481,3.994,3.994,0,0,1,1.464-1.546,4,4,0,0,1,4.064,0,3.992,3.992,0,0,1,1.463,1.546,4.882,4.882,0,0,1-.007,4.481ZM1441.2,491.5a2.665,2.665,0,0,0-.963-1.075,2.562,2.562,0,0,0-2.692,0,2.643,2.643,0,0,0-.964,1.089,3.561,3.561,0,0,0-.353,1.609,3.356,3.356,0,0,0,.361,1.581,2.656,2.656,0,0,0,.963,1.068,2.573,2.573,0,0,0,2.685-.006,2.655,2.655,0,0,0,.963-1.076,3.77,3.77,0,0,0,0-3.19Z" fill="#fff"/>
      <path id="Caminho_81438" data-name="Caminho 81438" d="M1444.856,488.894a.656.656,0,0,1,.485.194.663.663,0,0,1,.208.485v4.716a1.9,1.9,0,0,0,.229.922,1.77,1.77,0,0,0,.625.673,1.58,1.58,0,0,0,1.706,0,1.774,1.774,0,0,0,.623-.673,1.9,1.9,0,0,0,.23-.922v-4.716a.655.655,0,0,1,.194-.485.717.717,0,0,1,.485-.194h.694v5.395a3.154,3.154,0,0,1-1.54,2.726,3.013,3.013,0,0,1-3.079,0,3.16,3.16,0,0,1-1.54-2.726v-5.395Z" fill="#fff"/>
      <path id="Caminho_81439" data-name="Caminho 81439" d="M1457.436,493.374a2.706,2.706,0,0,1-1.318,1.026l2.275,2.9h-1.277a.91.91,0,0,1-.415-.1,1.019,1.019,0,0,1-.333-.264l-1.873-2.371h-1.4V497.3h-1.373v-8.4h3.481a2.625,2.625,0,0,1,1.381.381,2.89,2.89,0,0,1,.853,4.1Zm-1.263-2.739a1.255,1.255,0,0,0-.971-.452h-2.108v3.08h2.108a1.254,1.254,0,0,0,.971-.451,1.675,1.675,0,0,0,0-2.177Z" fill="#fff"/>
    </g>
  </g>
</svg>
