<svg xmlns="http://www.w3.org/2000/svg" width="112.872" height="72.777" viewBox="0 0 112.872 72.777">
  <g id="Grupo_40580" data-name="Grupo 40580" transform="translate(-1231.012 -430.851)">
    <g id="Grupo_40513" data-name="Grupo 40513">
      <path id="Caminho_81440" data-name="Caminho 81440" d="M1269.992,452.237h0a21.271,21.271,0,0,1-12.617-4.132,33.323,33.323,0,0,0-5.265,2.726,26.944,26.944,0,0,0,6.12,4.128A26.663,26.663,0,0,1,1269.992,452.237Z" fill="#00a0af"/>
      <path id="Caminho_81441" data-name="Caminho 81441" d="M1248.6,430.851h-5.443a26.68,26.68,0,0,0,5.235,15.9,38.991,38.991,0,0,1,4.762-2.73A21.271,21.271,0,0,1,1248.6,430.851Z" fill="#00a0af"/>
      <path id="Caminho_81442" data-name="Caminho 81442" d="M1269.992,464.291h0a33.236,33.236,0,0,1-12.616-2.479,21.568,21.568,0,0,0-4.217,4.086,38.583,38.583,0,0,0,6.653,2.475A14.718,14.718,0,0,1,1269.992,464.291Z" fill="#00a0af"/>
      <path id="Caminho_81443" data-name="Caminho 81443" d="M1252.11,459.087a33.736,33.736,0,0,1-5.257-4.128,33.642,33.642,0,0,0-3.615,4.068,39.134,39.134,0,0,0,5.159,4.141A27.081,27.081,0,0,1,1252.11,459.087Z" fill="#00a0af"/>
      <path id="Caminho_81444" data-name="Caminho 81444" d="M1239.518,454.959a39.283,39.283,0,0,1,3.72-4.069,33.261,33.261,0,0,1-6.687-20.039h-5.443A38.683,38.683,0,0,0,1239.518,454.959Z" fill="#00a0af"/>
      <path id="Caminho_81445" data-name="Caminho 81445" d="M1269.992,440.183a9.343,9.343,0,0,1-9.333-9.332h-5.443a14.729,14.729,0,0,0,4.6,10.693,38.806,38.806,0,0,1,10.18-1.361Z" fill="#00a0af"/>
      <g id="Grupo_40512" data-name="Grupo 40512">
        <path id="Caminho_81446" data-name="Caminho 81446" d="M1258.23,454.959a26.886,26.886,0,0,0-15.068,24.108h5.443a21.274,21.274,0,0,1,4.554-13.169,21.568,21.568,0,0,1,4.217-4.086,21.265,21.265,0,0,1,12.616-4.132v-5.443A26.663,26.663,0,0,0,1258.23,454.959Z" fill="#c0d128"/>
        <path id="Caminho_81447" data-name="Caminho 81447" d="M1259.812,468.373a14.731,14.731,0,0,0-4.6,10.694h5.443a9.344,9.344,0,0,1,9.333-9.333v-5.443A14.718,14.718,0,0,0,1259.812,468.373Z" fill="#c0d128"/>
        <path id="Caminho_81448" data-name="Caminho 81448" d="M1259.812,441.544a38.58,38.58,0,0,0-6.653,2.475,39.027,39.027,0,0,0-22.051,35.048h5.443a33.264,33.264,0,0,1,6.687-20.04,33.724,33.724,0,0,1,14.137-10.922,33.259,33.259,0,0,1,12.617-2.479v-5.443A38.806,38.806,0,0,0,1259.812,441.544Z" fill="#c0d128"/>
      </g>
    </g>
    <path id="Caminho_81449" data-name="Caminho 81449" d="M1292.1,433.262a19.156,19.156,0,0,1,14.43,6.06,22.175,22.175,0,0,1,0,29.886,19.156,19.156,0,0,1-14.43,6.06h-16.681V433.262Zm0,34.085a11.655,11.655,0,0,0,8.878-3.628,14.76,14.76,0,0,0,0-18.9,11.641,11.641,0,0,0-8.878-3.633h-8.4v26.164Z" fill="#c0d128"/>
    <path id="Caminho_81450" data-name="Caminho 81450" d="M1334.283,450.3a14.1,14.1,0,0,1,6.93,4.409,11.375,11.375,0,0,1,2.671,7.594q0,6.481-4.351,10.137a15.979,15.979,0,0,1-10.65,3.663,17.164,17.164,0,0,1-8.79-2.251,12.91,12.91,0,0,1-5.611-6.632l7.081-4.077q1.56,4.855,7.32,4.858a7.334,7.334,0,0,0,4.951-1.528,5.767,5.767,0,0,0,0-8.311,7.246,7.246,0,0,0-4.951-1.563h-1.8l-3.179-4.8,8.282-10.8h-16.442v-7.745h26.4V440.1Z" fill="#00a0af"/>
    <path id="Retângulo_22579" data-name="Retângulo 22579" d="M0,0H111.6a0,0,0,0,1,0,0V12.419a7.616,7.616,0,0,1-7.616,7.616H7.616A7.616,7.616,0,0,1,0,12.419V0A0,0,0,0,1,0,0Z" transform="translate(1231.012 483.592)" fill="#ff006e"/>
    <g id="Grupo_40514" data-name="Grupo 40514">
      <path id="Caminho_81451" data-name="Caminho 81451" d="M1271.567,489.5a.663.663,0,0,1-.679.68h-1.914V497.3H1267.6v-7.116h-1.914a.72.72,0,0,1-.486-.194.66.66,0,0,1-.194-.486v-.609h6.561Z" fill="#fff"/>
      <path id="Caminho_81452" data-name="Caminho 81452" d="M1278.252,493.374a2.7,2.7,0,0,1-1.317,1.026l2.275,2.9h-1.277a.918.918,0,0,1-.416-.1,1.025,1.025,0,0,1-.332-.264l-1.873-2.371h-1.4V497.3h-1.373v-8.4h3.481a2.628,2.628,0,0,1,1.381.381,2.89,2.89,0,0,1,.852,4.1Zm-1.262-2.739a1.256,1.256,0,0,0-.971-.452h-2.108v3.08h2.108a1.254,1.254,0,0,0,.971-.451,1.675,1.675,0,0,0,0-2.177Z" fill="#fff"/>
      <path id="Caminho_81453" data-name="Caminho 81453" d="M1286.228,497.175a.648.648,0,0,1-.25-.333l-.569-1.6h-3.453l-.555,1.6a.653.653,0,0,1-.25.333.7.7,0,0,1-.4.124h-.985l3.121-8.4h1.609l3.121,8.4h-.985A.7.7,0,0,1,1286.228,497.175Zm-3.8-3.233h2.523l-1.261-3.592Z" fill="#fff"/>
      <path id="Caminho_81454" data-name="Caminho 81454" d="M1290.042,497.3l-3.121-8.4h.985a.69.69,0,0,1,.4.124.645.645,0,0,1,.25.333l2.289,6.492,2.288-6.492a.64.64,0,0,1,.25-.333.69.69,0,0,1,.4-.124h.985l-3.121,8.4Z" fill="#fff"/>
      <path id="Caminho_81455" data-name="Caminho 81455" d="M1301.555,489.5a.66.66,0,0,1-.194.486.722.722,0,0,1-.486.194h-3.759v2.262h3.343v.61a.669.669,0,0,1-.2.492.654.654,0,0,1-.478.2h-2.664v2.247h4.439v.624a.663.663,0,0,1-.68.68h-5.132v-8.4h5.812Z" fill="#fff"/>
      <path id="Caminho_81456" data-name="Caminho 81456" d="M1304.315,488.894v7.1h4.022v.624a.72.72,0,0,1-.194.486.655.655,0,0,1-.485.194h-4.716v-8.4Z" fill="#fff"/>
    </g>
  </g>
</svg>
