<svg xmlns="http://www.w3.org/2000/svg" width="112.872" height="72.777" viewBox="0 0 112.872 72.777">
  <g id="Grupo_40581" data-name="Grupo 40581" transform="translate(-1081.484 -430.851)">
    <g id="Grupo_40517" data-name="Grupo 40517">
      <path id="Caminho_81457" data-name="Caminho 81457" d="M1120.464,452.237h0a21.265,21.265,0,0,1-12.616-4.132,33.291,33.291,0,0,0-5.266,2.726,26.923,26.923,0,0,0,6.121,4.128A26.655,26.655,0,0,1,1120.464,452.237Z" fill="#00a0af"/>
      <path id="Caminho_81458" data-name="Caminho 81458" d="M1099.078,430.851h-5.443a26.679,26.679,0,0,0,5.234,15.9,38.989,38.989,0,0,1,4.762-2.73A21.27,21.27,0,0,1,1099.078,430.851Z" fill="#00a0af"/>
      <path id="Caminho_81459" data-name="Caminho 81459" d="M1120.464,464.291h0a33.235,33.235,0,0,1-12.616-2.479,21.6,21.6,0,0,0-4.217,4.086,38.644,38.644,0,0,0,6.653,2.475A14.719,14.719,0,0,1,1120.464,464.291Z" fill="#00a0af"/>
      <path id="Caminho_81460" data-name="Caminho 81460" d="M1102.582,459.087a33.737,33.737,0,0,1-5.257-4.128,33.746,33.746,0,0,0-3.615,4.068,39.135,39.135,0,0,0,5.159,4.141A27.068,27.068,0,0,1,1102.582,459.087Z" fill="#00a0af"/>
      <path id="Caminho_81461" data-name="Caminho 81461" d="M1089.99,454.959a39.282,39.282,0,0,1,3.72-4.069,33.267,33.267,0,0,1-6.686-20.039h-5.443A38.683,38.683,0,0,0,1089.99,454.959Z" fill="#00a0af"/>
      <path id="Caminho_81462" data-name="Caminho 81462" d="M1120.464,440.183a9.343,9.343,0,0,1-9.333-9.332h-5.443a14.729,14.729,0,0,0,4.6,10.693,38.812,38.812,0,0,1,10.18-1.361Z" fill="#00a0af"/>
      <g id="Grupo_40516" data-name="Grupo 40516">
        <path id="Caminho_81463" data-name="Caminho 81463" d="M1108.7,454.959a26.881,26.881,0,0,0-15.068,24.108h5.443a21.273,21.273,0,0,1,4.553-13.169,21.6,21.6,0,0,1,4.217-4.086,21.265,21.265,0,0,1,12.616-4.132v-5.443A26.655,26.655,0,0,0,1108.7,454.959Z" fill="#c0d128"/>
        <path id="Caminho_81464" data-name="Caminho 81464" d="M1110.284,468.373a14.731,14.731,0,0,0-4.6,10.694h5.443a9.344,9.344,0,0,1,9.333-9.333v-5.443A14.719,14.719,0,0,0,1110.284,468.373Z" fill="#c0d128"/>
        <path id="Caminho_81465" data-name="Caminho 81465" d="M1110.284,441.544a38.581,38.581,0,0,0-6.653,2.475,39.024,39.024,0,0,0-22.05,35.048h5.443a33.27,33.27,0,0,1,6.686-20.04,33.991,33.991,0,0,1,8.872-8.2,33.274,33.274,0,0,1,17.882-5.2v-5.443A38.812,38.812,0,0,0,1110.284,441.544Z" fill="#c0d128"/>
      </g>
    </g>
    <path id="Caminho_81466" data-name="Caminho 81466" d="M1142.569,433.262a19.156,19.156,0,0,1,14.43,6.06,22.172,22.172,0,0,1,0,29.886,19.156,19.156,0,0,1-14.43,6.06h-16.681V433.262Zm0,34.085a11.655,11.655,0,0,0,8.878-3.628,14.76,14.76,0,0,0,0-18.9,11.641,11.641,0,0,0-8.878-3.633h-8.4v26.164Z" fill="#c0d128"/>
    <path id="Caminho_81467" data-name="Caminho 81467" d="M1184.756,450.3a14.1,14.1,0,0,1,6.929,4.409,11.375,11.375,0,0,1,2.671,7.594q0,6.481-4.351,10.137a15.98,15.98,0,0,1-10.65,3.663,17.164,17.164,0,0,1-8.79-2.251,12.915,12.915,0,0,1-5.611-6.632l7.081-4.077q1.56,4.855,7.32,4.858a7.332,7.332,0,0,0,4.951-1.528,5.768,5.768,0,0,0,0-8.311,7.245,7.245,0,0,0-4.951-1.563h-1.8l-3.179-4.8,8.282-10.8h-16.442v-7.745h26.4V440.1Z" fill="#00a0af"/>
    <path id="Retângulo_22580" data-name="Retângulo 22580" d="M0,0H111.6a0,0,0,0,1,0,0V12.419a7.616,7.616,0,0,1-7.616,7.616H7.616A7.616,7.616,0,0,1,0,12.419V0A0,0,0,0,1,0,0Z" transform="translate(1081.484 483.592)" fill="#fb5607"/>
    <g id="Grupo_40518" data-name="Grupo 40518">
      <path id="Caminho_81468" data-name="Caminho 81468" d="M1100.907,493.374a2.7,2.7,0,0,1-1.317,1.026l2.275,2.9h-1.277a.918.918,0,0,1-.416-.1,1.041,1.041,0,0,1-.333-.264l-1.872-2.371h-1.4V497.3h-1.373v-8.4h3.481a2.628,2.628,0,0,1,1.381.381,2.89,2.89,0,0,1,.852,4.1Zm-1.262-2.739a1.257,1.257,0,0,0-.971-.452h-2.108v3.08h2.108a1.256,1.256,0,0,0,.971-.451,1.675,1.675,0,0,0,0-2.177Z" fill="#fff"/>
      <path id="Caminho_81469" data-name="Caminho 81469" d="M1108.785,489.5a.663.663,0,0,1-.193.486.724.724,0,0,1-.486.194h-3.759v2.262h3.343v.61a.67.67,0,0,1-.2.492.651.651,0,0,1-.478.2h-2.663v2.247h4.438v.624a.662.662,0,0,1-.679.68h-5.132v-8.4h5.811Z" fill="#fff"/>
      <path id="Caminho_81470" data-name="Caminho 81470" d="M1115.374,494.844v-5.95h1.359v8.4h-.846a.918.918,0,0,1-.451-.118.987.987,0,0,1-.354-.326l-3.537-5.506v5.95h-1.373v-8.4h.846a.924.924,0,0,1,.451.118,1.051,1.051,0,0,1,.354.311Z" fill="#fff"/>
      <path id="Caminho_81471" data-name="Caminho 81471" d="M1124.265,489.5a.663.663,0,0,1-.679.68h-1.914V497.3H1120.3v-7.116h-1.914a.72.72,0,0,1-.486-.194.66.66,0,0,1-.194-.486v-.609h6.561Z" fill="#fff"/>
      <path id="Caminho_81472" data-name="Caminho 81472" d="M1130.035,497.175a.648.648,0,0,1-.25-.333l-.569-1.6h-3.453l-.555,1.6a.653.653,0,0,1-.25.333.7.7,0,0,1-.4.124h-.985l3.121-8.4h1.609l3.121,8.4h-.985A.7.7,0,0,1,1130.035,497.175Zm-3.8-3.233h2.523l-1.261-3.592Z" fill="#fff"/>
      <path id="Caminho_81473" data-name="Caminho 81473" d="M1133.767,488.894v7.1h4.022v.624a.72.72,0,0,1-.194.486.655.655,0,0,1-.485.194h-4.716v-8.4Z" fill="#fff"/>
      <path id="Caminho_81474" data-name="Caminho 81474" d="M1143.462,488.894v3.551h3.62v-3.551h1.36v8.4h-1.36v-3.551h-3.62V497.3h-1.373v-8.4Z" fill="#fff"/>
      <path id="Caminho_81475" data-name="Caminho 81475" d="M1157.215,495.337a4.067,4.067,0,0,1-1.464,1.546,3.985,3.985,0,0,1-4.057,0,3.992,3.992,0,0,1-1.463-1.546,4.919,4.919,0,0,1,0-4.481,3.992,3.992,0,0,1,1.463-1.546,4,4,0,0,1,4.065,0,4,4,0,0,1,1.463,1.546,4.882,4.882,0,0,1-.007,4.481Zm-1.179-3.836a2.666,2.666,0,0,0-.964-1.075,2.561,2.561,0,0,0-2.691,0,2.643,2.643,0,0,0-.964,1.089,3.548,3.548,0,0,0-.353,1.609,3.368,3.368,0,0,0,.36,1.581,2.665,2.665,0,0,0,.964,1.068,2.571,2.571,0,0,0,2.684-.006,2.656,2.656,0,0,0,.964-1.076,3.77,3.77,0,0,0,0-3.19Z" fill="#fff"/>
      <path id="Caminho_81476" data-name="Caminho 81476" d="M1159.746,488.894a1.3,1.3,0,0,1,1.04.471l1.914,2.261,1.914-2.261a1.306,1.306,0,0,1,1.041-.471h.735v8.4h-1.359v-6.422l-2.331,2.732-2.316-2.732V497.3h-1.373v-8.4Z" fill="#fff"/>
      <path id="Caminho_81477" data-name="Caminho 81477" d="M1173.866,489.5a.659.659,0,0,1-.194.486.722.722,0,0,1-.486.194h-3.759v2.262h3.344v.61a.67.67,0,0,1-.2.492.654.654,0,0,1-.478.2h-2.664v2.247h4.439v.624a.663.663,0,0,1-.68.68h-5.132v-8.4h5.812Z" fill="#fff"/>
      <path id="Caminho_81478" data-name="Caminho 81478" d="M1176.778,488.97a3.432,3.432,0,0,1,1.082-.173,3.835,3.835,0,0,1,1.311.256,3.086,3.086,0,0,1,1.089.7,2.7,2.7,0,0,1,.624.93l-1.234.541a1.712,1.712,0,0,0-.43-.589,2.026,2.026,0,0,0-.68-.424,2.082,2.082,0,0,0-.652-.111,1.844,1.844,0,0,0-1.13.354.927.927,0,0,0-.41.909.676.676,0,0,0,.368.506,4.611,4.611,0,0,0,.922.367l.278.07q.762.209,1.228.367a3.658,3.658,0,0,1,.894.458,1.987,1.987,0,0,1,.888,1.7,2.363,2.363,0,0,1-.319,1.193,2.658,2.658,0,0,1-1.165,1.082,3.714,3.714,0,0,1-4.883-1.512l1.207-.693a2.925,2.925,0,0,0,.749.86,2.373,2.373,0,0,0,1.345.43,2.069,2.069,0,0,0,1.173-.347,1.079,1.079,0,0,0,.52-.943q0-.75-1.291-1.165l-.721-.195a7.879,7.879,0,0,1-1.387-.45,2.058,2.058,0,0,1-.873-.784,1.921,1.921,0,0,1-.306-1.069,2.222,2.222,0,0,1,.222-.956,2.251,2.251,0,0,1,.638-.8A3.009,3.009,0,0,1,1176.778,488.97Z" fill="#fff"/>
    </g>
  </g>
</svg>
