<svg xmlns="http://www.w3.org/2000/svg" width="112.871" height="72.777" viewBox="0 0 112.871 72.777">
  <g id="Grupo_40582" data-name="Grupo 40582" transform="translate(-930.585 -430.851)">
    <g id="Grupo_40521" data-name="Grupo 40521">
      <path id="Caminho_81479" data-name="Caminho 81479" d="M969.564,452.237h0a21.268,21.268,0,0,1-12.616-4.132,33.333,33.333,0,0,0-5.266,2.726,26.948,26.948,0,0,0,6.121,4.128A26.659,26.659,0,0,1,969.564,452.237Z" fill="#00a0af"/>
      <path id="Caminho_81480" data-name="Caminho 81480" d="M948.178,430.851h-5.443a26.686,26.686,0,0,0,5.234,15.9,39.068,39.068,0,0,1,4.762-2.73A21.276,21.276,0,0,1,948.178,430.851Z" fill="#00a0af"/>
      <path id="Caminho_81481" data-name="Caminho 81481" d="M969.564,464.291h0a33.239,33.239,0,0,1-12.616-2.479,21.6,21.6,0,0,0-4.217,4.086,38.645,38.645,0,0,0,6.653,2.475A14.72,14.72,0,0,1,969.564,464.291Z" fill="#00a0af"/>
      <path id="Caminho_81482" data-name="Caminho 81482" d="M951.682,459.087a33.739,33.739,0,0,1-5.257-4.128,33.738,33.738,0,0,0-3.614,4.068,39.139,39.139,0,0,0,5.159,4.141A27.068,27.068,0,0,1,951.682,459.087Z" fill="#00a0af"/>
      <path id="Caminho_81483" data-name="Caminho 81483" d="M939.09,454.959a39.176,39.176,0,0,1,3.721-4.069,33.262,33.262,0,0,1-6.687-20.039h-5.443A38.682,38.682,0,0,0,939.09,454.959Z" fill="#00a0af"/>
      <path id="Caminho_81484" data-name="Caminho 81484" d="M969.564,440.183a9.342,9.342,0,0,1-9.332-9.332h-5.443a14.728,14.728,0,0,0,4.595,10.693,38.818,38.818,0,0,1,10.18-1.361Z" fill="#00a0af"/>
      <g id="Grupo_40520" data-name="Grupo 40520">
        <path id="Caminho_81485" data-name="Caminho 81485" d="M957.8,454.959a26.886,26.886,0,0,0-15.068,24.108h5.443a21.279,21.279,0,0,1,4.553-13.169,21.6,21.6,0,0,1,4.217-4.086,21.27,21.27,0,0,1,12.616-4.132v-5.443A26.659,26.659,0,0,0,957.8,454.959Z" fill="#c0d128"/>
        <path id="Caminho_81486" data-name="Caminho 81486" d="M959.384,468.373a14.73,14.73,0,0,0-4.595,10.694h5.443a9.343,9.343,0,0,1,9.332-9.333v-5.443A14.72,14.72,0,0,0,959.384,468.373Z" fill="#c0d128"/>
        <path id="Caminho_81487" data-name="Caminho 81487" d="M959.384,441.544a38.642,38.642,0,0,0-6.653,2.475,39.024,39.024,0,0,0-22.05,35.048h5.443a33.264,33.264,0,0,1,6.687-20.04,33.964,33.964,0,0,1,8.871-8.2,33.274,33.274,0,0,1,17.882-5.2v-5.443A38.818,38.818,0,0,0,959.384,441.544Z" fill="#c0d128"/>
      </g>
    </g>
    <path id="Caminho_81488" data-name="Caminho 81488" d="M991.669,433.262a19.153,19.153,0,0,1,14.43,6.06,22.172,22.172,0,0,1,0,29.886,19.153,19.153,0,0,1-14.43,6.06H974.988V433.262Zm0,34.085a11.653,11.653,0,0,0,8.878-3.628,14.76,14.76,0,0,0,0-18.9,11.639,11.639,0,0,0-8.878-3.633h-8.4v26.164Z" fill="#c0d128"/>
    <path id="Caminho_81489" data-name="Caminho 81489" d="M1033.856,450.3a14.1,14.1,0,0,1,6.929,4.409,11.37,11.37,0,0,1,2.671,7.594q0,6.481-4.351,10.137a15.976,15.976,0,0,1-10.65,3.663,17.167,17.167,0,0,1-8.79-2.251,12.919,12.919,0,0,1-5.611-6.632l7.081-4.077q1.56,4.855,7.32,4.858a7.336,7.336,0,0,0,4.952-1.528,5.77,5.77,0,0,0,0-8.311,7.249,7.249,0,0,0-4.952-1.563h-1.8l-3.179-4.8,8.282-10.8h-16.442v-7.745h26.4V440.1Z" fill="#00a0af"/>
    <path id="Retângulo_22581" data-name="Retângulo 22581" d="M0,0H111.6a0,0,0,0,1,0,0V12.419a7.616,7.616,0,0,1-7.616,7.616H7.616A7.616,7.616,0,0,1,0,12.419V0A0,0,0,0,1,0,0Z" transform="translate(930.585 483.592)" fill="#ffbe0b"/>
    <g id="Grupo_40522" data-name="Grupo 40522">
      <path id="Caminho_81490" data-name="Caminho 81490" d="M968.476,488.894v3.551h3.62v-3.551h1.36v8.4H972.1v-3.551h-3.62V497.3H967.1v-8.4Z"/>
      <path id="Caminho_81491" data-name="Caminho 81491" d="M982.229,495.337a4.068,4.068,0,0,1-1.464,1.546,3.985,3.985,0,0,1-4.057,0,3.992,3.992,0,0,1-1.463-1.546,4.918,4.918,0,0,1,0-4.481,3.992,3.992,0,0,1,1.463-1.546,4,4,0,0,1,4.065,0,4,4,0,0,1,1.463,1.546,4.882,4.882,0,0,1-.007,4.481ZM981.05,491.5a2.666,2.666,0,0,0-.964-1.075,2.561,2.561,0,0,0-2.691,0,2.642,2.642,0,0,0-.964,1.089,3.548,3.548,0,0,0-.353,1.609,3.368,3.368,0,0,0,.36,1.581,2.665,2.665,0,0,0,.964,1.068,2.571,2.571,0,0,0,2.684-.006,2.656,2.656,0,0,0,.964-1.076,3.77,3.77,0,0,0,0-3.19Z"/>
      <path id="Caminho_81492" data-name="Caminho 81492" d="M984.76,488.894a1.3,1.3,0,0,1,1.04.471l1.914,2.261,1.914-2.261a1.306,1.306,0,0,1,1.041-.471h.735v8.4h-1.359v-6.422l-2.331,2.732-2.316-2.732V497.3h-1.373v-8.4Z"/>
      <path id="Caminho_81493" data-name="Caminho 81493" d="M998.88,489.5a.659.659,0,0,1-.194.486.722.722,0,0,1-.486.194h-3.759v2.262h3.343v.61a.669.669,0,0,1-.2.492.654.654,0,0,1-.478.2h-2.664v2.247h4.439v.624a.663.663,0,0,1-.68.68h-5.132v-8.4h5.812Z"/>
      <path id="Caminho_81494" data-name="Caminho 81494" d="M1001.792,488.97a3.432,3.432,0,0,1,1.082-.173,3.834,3.834,0,0,1,1.311.256,3.086,3.086,0,0,1,1.089.7,2.7,2.7,0,0,1,.624.93l-1.234.541a1.712,1.712,0,0,0-.43-.589,2.026,2.026,0,0,0-.68-.424,2.082,2.082,0,0,0-.652-.111,1.844,1.844,0,0,0-1.13.354.927.927,0,0,0-.41.909.676.676,0,0,0,.368.506,4.611,4.611,0,0,0,.922.367l.278.07q.762.209,1.228.367a3.658,3.658,0,0,1,.894.458,2.091,2.091,0,0,1,.666.742,2.07,2.07,0,0,1,.222.957,2.362,2.362,0,0,1-.319,1.193,2.657,2.657,0,0,1-1.165,1.082,3.714,3.714,0,0,1-4.883-1.512l1.207-.693a2.926,2.926,0,0,0,.749.86,2.373,2.373,0,0,0,1.345.43,2.069,2.069,0,0,0,1.173-.347,1.079,1.079,0,0,0,.52-.943q0-.75-1.291-1.165l-.721-.195a7.881,7.881,0,0,1-1.387-.45,2.059,2.059,0,0,1-.873-.784,1.921,1.921,0,0,1-.306-1.069,2.291,2.291,0,0,1,.86-1.761A3.008,3.008,0,0,1,1001.792,488.97Z"/>
    </g>
  </g>
</svg>
